<svg id="Layer_1" data-name="Layer 1" xmlns="http://www.w3.org/2000/svg" viewBox="0 0 988.18 896.08"><defs><style>.cls-1{fill:#ced4da;}.cls-2{fill:#dee2e6;}</style></defs><polygon class="cls-1" points="988.18 0 988.18 219.38 949.64 238.05 949.54 238.05 889.36 267 835.7 292.9 790.54 314.63 721.86 347.74 721.76 347.74 691.72 362.17 607.93 402.58 592.91 409.8 494.09 457.43 494.09 237.95 494.19 237.95 592.91 190.42 607.93 183.21 691.72 142.79 721.86 128.36 790.54 95.26 835.7 73.52 889.36 47.63 949.54 18.68 988.18 0"/><polygon class="cls-1" points="988.18 438.75 988.18 658.13 949.54 676.7 889.36 705.75 835.7 731.55 790.54 753.29 790.54 533.91 835.7 512.17 889.36 486.38 949.54 457.33 988.18 438.75"/><polygon class="cls-1" points="691.72 581.54 691.72 800.92 607.93 841.24 592.91 848.45 494.09 896.08 494.09 676.7 592.91 629.17 607.93 621.86 691.72 581.54"/><polygon class="cls-2" points="494.09 237.95 494.09 457.43 493.99 457.43 395.27 409.8 380.25 402.58 380.15 402.58 296.45 362.17 266.31 347.74 197.63 314.63 197.63 534.01 266.31 567.12 296.45 581.54 380.15 621.86 380.25 621.86 395.27 629.17 494.09 676.7 494.09 896.08 493.99 896.08 395.27 848.55 380.15 841.24 296.45 800.92 266.31 786.39 266.21 786.39 197.63 753.39 152.48 731.65 152.38 731.65 98.82 705.75 38.54 676.8 0 658.22 0 0 38.54 18.68 38.64 18.68 98.82 47.63 152.48 73.42 197.63 95.26 266.31 128.26 266.41 128.26 296.45 142.79 380.25 183.11 395.27 190.42 494.09 237.95"/></svg>