<svg id="Layer_1" data-name="Layer 1" xmlns="http://www.w3.org/2000/svg" viewBox="0 0 652.18 796.19"><defs><style>.cls-1{fill:#231f20;}</style></defs><polygon class="cls-1" points="531.29 230.09 489.14 277.39 428.74 345.1 326.09 460.11 223.44 345.1 163.04 277.39 120.89 230.09 163.04 182.79 223.44 115.09 326.09 0 428.74 115.09 489.14 182.79 531.29 230.09"/><polygon class="cls-1" points="652.18 200.67 652.18 430.68 633.94 451.17 531.29 566.18 489.14 613.48 428.74 681.18 326.09 796.19 223.44 681.18 163.04 613.48 120.89 566.18 18.24 451.17 0 430.68 0 200.67 18.24 221.08 120.89 336.17 163.04 383.46 223.44 451.17 326.09 566.18 428.74 451.17 489.14 383.46 531.29 336.17 633.94 221.08 652.18 200.67"/></svg>